<svg width="130" height="38" viewBox="0 0 130 38" fill="none" xmlns="http://www.w3.org/2000/svg">
<path d="M129.278 33.2246C129.278 35.2259 127.623 36.8471 125.576 36.8471H4.42892C2.38292 36.8471 0.722168 35.2259 0.722168 33.2246V4.33601C0.722168 2.33557 2.38292 0.70874 4.42892 0.70874H125.575C127.623 0.70874 129.277 2.33557 129.277 4.33601L129.278 33.2246Z" fill="black"/>
<path d="M125.185 0.752395C127.414 0.752395 129.228 2.52103 129.228 4.69455V32.8612C129.228 35.0347 127.414 36.8034 125.185 36.8034H4.81481C2.58556 36.8034 0.771574 35.0347 0.771574 32.8612V4.69455C0.771574 2.52103 2.58556 0.752395 4.81481 0.752395H125.185ZM125.185 0.000111017H4.81481C2.16787 0.000111017 0 2.11378 0 4.69455V32.8612C0 35.442 2.16787 37.5557 4.81481 37.5557H125.185C127.832 37.5557 130 35.442 130 32.8612V4.69455C130 2.11378 127.832 0.000111017 125.185 0.000111017Z" fill="#A6A6A6"/>
<path d="M29.0124 18.5748C28.9845 15.5488 31.5536 14.0766 31.6711 14.0081C30.2161 11.9397 27.9608 11.6571 27.1683 11.6346C25.2742 11.4402 23.4368 12.7396 22.4719 12.7396C21.4878 12.7396 20.0019 11.6533 18.4005 11.6853C16.3398 11.7162 14.4119 12.8795 13.3546 14.6859C11.1725 18.3692 12.7999 23.7819 14.8905 26.7591C15.9363 28.2172 17.1583 29.8452 18.7578 29.788C20.3226 29.7251 20.9071 28.8153 22.7955 28.8153C24.6665 28.8153 25.2154 29.788 26.8467 29.7513C28.5261 29.7251 29.5834 28.2867 30.5926 26.8154C31.8011 25.1442 32.2865 23.4984 32.3057 23.4139C32.2662 23.4007 29.0442 22.2017 29.0124 18.5748Z" fill="white"/>
<path d="M25.9309 9.67603C26.7725 8.64982 27.3484 7.2537 27.1885 5.83691C25.9704 5.88949 24.447 6.65844 23.5697 7.66211C22.7936 8.54655 22.1002 9.99619 22.2793 11.3595C23.6477 11.459 25.0527 10.6863 25.9309 9.67603Z" fill="white"/>
<path d="M51.6582 29.5787H49.4714L48.2734 25.9086H44.1096L42.9685 29.5787H40.8394L44.9647 17.084H47.5127L51.6582 29.5787ZM47.9123 24.3688L46.829 21.1062C46.7144 20.7729 46.4996 19.988 46.1828 18.7524H46.1443C46.0182 19.2838 45.815 20.0687 45.5357 21.1062L44.4716 24.3688H47.9123Z" fill="white"/>
<path d="M62.2674 24.9632C62.2674 26.4955 61.8427 27.7067 60.9934 28.5958C60.2327 29.3873 59.288 29.7826 58.1604 29.7826C56.9432 29.7826 56.0688 29.3563 55.5363 28.5038H55.4978V33.2499H53.4447V23.5352C53.4447 22.5719 53.4187 21.5832 53.3687 20.5692H55.1742L55.2888 21.9973H55.3273C56.012 20.9213 57.051 20.3843 58.4454 20.3843C59.5355 20.3843 60.4455 20.804 61.1735 21.6443C61.9034 22.4855 62.2674 23.5915 62.2674 24.9632ZM60.1758 25.0365C60.1758 24.1595 59.9736 23.4366 59.5672 22.8676C59.1233 22.2743 58.5272 21.9776 57.78 21.9776C57.2735 21.9776 56.8132 22.1428 56.402 22.4686C55.9898 22.7972 55.7202 23.2263 55.5941 23.7577C55.5305 24.0056 55.4987 24.2084 55.4987 24.368V25.8702C55.4987 26.5255 55.7048 27.0786 56.1169 27.5302C56.5291 27.9818 57.0645 28.2071 57.7232 28.2071C58.4964 28.2071 59.0983 27.916 59.5287 27.3358C59.9601 26.7546 60.1758 25.9885 60.1758 25.0365Z" fill="white"/>
<path d="M72.8953 24.9632C72.8953 26.4955 72.4707 27.7067 71.6204 28.5958C70.8606 29.3873 69.9159 29.7826 68.7883 29.7826C67.5711 29.7826 66.6967 29.3563 66.1652 28.5038H66.1267V33.2499H64.0736V23.5352C64.0736 22.5719 64.0476 21.5832 63.9976 20.5692H65.8031L65.9177 21.9973H65.9562C66.6399 20.9213 67.679 20.3843 69.0743 20.3843C70.1634 20.3843 71.0734 20.804 71.8033 21.6443C72.5304 22.4855 72.8953 23.5915 72.8953 24.9632ZM70.8038 25.0365C70.8038 24.1595 70.6006 23.4366 70.1942 22.8676C69.7503 22.2743 69.1562 21.9776 68.4079 21.9776C67.9004 21.9776 67.4411 22.1428 67.029 22.4686C66.6168 22.7972 66.3481 23.2263 66.222 23.7577C66.1594 24.0056 66.1267 24.2084 66.1267 24.368V25.8702C66.1267 26.5255 66.3327 27.0786 66.743 27.5302C67.1551 27.9808 67.6905 28.2071 68.3511 28.2071C69.1244 28.2071 69.7262 27.916 70.1567 27.3358C70.5881 26.7546 70.8038 25.9885 70.8038 25.0365Z" fill="white"/>
<path d="M84.7783 26.0748C84.7783 27.1376 84.3999 28.0023 83.6401 28.6699C82.8052 29.3994 81.6429 29.7637 80.1494 29.7637C78.7704 29.7637 77.6649 29.5045 76.8281 28.9853L77.3038 27.3169C78.2052 27.8483 79.1941 28.115 80.2717 28.115C81.0449 28.115 81.6468 27.9441 82.0792 27.6042C82.5096 27.2643 82.7243 26.808 82.7243 26.2391C82.7243 25.7321 82.5472 25.3049 82.1918 24.9584C81.8384 24.612 81.2481 24.2899 80.4238 23.9923C78.1801 23.1764 77.0592 21.9812 77.0592 20.4095C77.0592 19.3824 77.4521 18.5402 78.2389 17.8848C79.0227 17.2286 80.0685 16.9009 81.3762 16.9009C82.5423 16.9009 83.5111 17.099 84.2843 17.4943L83.7711 19.126C83.0489 18.743 82.2323 18.5514 81.3184 18.5514C80.5962 18.5514 80.0319 18.7251 79.6275 19.0707C79.2856 19.3795 79.1142 19.756 79.1142 20.202C79.1142 20.6959 79.3097 21.1043 79.7026 21.4254C80.0444 21.7221 80.6655 22.0432 81.5669 22.3896C82.6695 22.8225 83.4793 23.3285 84.0003 23.9087C84.5193 24.4871 84.7783 25.211 84.7783 26.0748Z" fill="white"/>
<path d="M91.5665 22.0713H89.3036V26.4456C89.3036 27.5582 89.7022 28.114 90.5015 28.114C90.8684 28.114 91.1727 28.083 91.4134 28.0211L91.4702 29.5411C91.0658 29.6885 90.5333 29.7627 89.8736 29.7627C89.0628 29.7627 88.4292 29.5214 87.9718 29.0398C87.5163 28.5572 87.2871 27.7478 87.2871 26.6109V22.0694H85.939V20.5672H87.2871V18.9176L89.3036 18.3242V20.5672H91.5665V22.0713Z" fill="white"/>
<path d="M101.776 24.9999C101.776 26.3848 101.37 27.5217 100.559 28.4109C99.709 29.3263 98.5804 29.7826 97.1735 29.7826C95.8177 29.7826 94.7382 29.3441 93.9331 28.4672C93.1281 27.5903 92.7256 26.4833 92.7256 25.1492C92.7256 23.753 93.1397 22.6095 93.9707 21.7204C94.7998 20.8303 95.9188 20.3853 97.3257 20.3853C98.6815 20.3853 99.7725 20.8237 100.596 21.7016C101.384 22.5531 101.776 23.6526 101.776 24.9999ZM99.6464 25.0647C99.6464 24.2338 99.4644 23.5211 99.0956 22.9268C98.6651 22.2076 98.0498 21.849 97.2525 21.849C96.4272 21.849 95.8003 22.2086 95.3699 22.9268C95.0011 23.5221 94.8191 24.246 94.8191 25.1022C94.8191 25.9331 95.0011 26.6458 95.3699 27.2391C95.8138 27.9583 96.434 28.317 97.2342 28.317C98.018 28.317 98.6334 27.9508 99.0773 27.2204C99.4557 26.6148 99.6464 25.8947 99.6464 25.0647Z" fill="white"/>
<path d="M108.45 22.3297C108.247 22.293 108.03 22.2743 107.803 22.2743C107.08 22.2743 106.522 22.54 106.129 23.0723C105.787 23.5418 105.616 24.1351 105.616 24.8515V29.5788H103.564L103.583 23.4066C103.583 22.3681 103.557 21.4227 103.506 20.5702H105.294L105.369 22.294H105.426C105.643 21.7015 105.985 21.2246 106.453 20.8669C106.91 20.5448 107.404 20.3843 107.936 20.3843C108.126 20.3843 108.298 20.3974 108.45 20.4209V22.3297Z" fill="white"/>
<path d="M117.632 24.6478C117.632 25.0065 117.608 25.3088 117.556 25.5557H111.397C111.421 26.4458 111.719 27.1265 112.291 27.5959C112.81 28.0156 113.481 28.2259 114.306 28.2259C115.217 28.2259 116.049 28.0842 116.798 27.7997L117.119 29.1892C116.245 29.561 115.213 29.746 114.021 29.746C112.589 29.746 111.464 29.3348 110.645 28.5132C109.829 27.6917 109.419 26.5885 109.419 25.2046C109.419 23.846 109.8 22.7147 110.562 21.8124C111.359 20.8491 112.436 20.3674 113.792 20.3674C115.124 20.3674 116.132 20.8491 116.817 21.8124C117.359 22.5776 117.632 23.524 117.632 24.6478ZM115.674 24.1286C115.687 23.5352 115.554 23.0226 115.275 22.5898C114.92 22.033 114.374 21.7551 113.639 21.7551C112.968 21.7551 112.422 22.0264 112.005 22.571C111.663 23.0038 111.46 23.523 111.397 24.1277H115.674V24.1286Z" fill="white"/>
<path d="M47.2336 9.3972C47.2336 10.5023 46.8936 11.3341 46.2147 11.8928C45.5859 12.4082 44.6923 12.6664 43.5348 12.6664C42.9609 12.6664 42.4698 12.642 42.0586 12.5932V6.55518C42.595 6.47068 43.1727 6.42749 43.7967 6.42749C44.8993 6.42749 45.7304 6.66127 46.2908 7.12884C46.9187 7.65743 47.2336 8.41324 47.2336 9.3972ZM46.1695 9.42442C46.1695 8.70805 45.975 8.1588 45.5859 7.77573C45.1969 7.39361 44.6287 7.20207 43.8805 7.20207C43.5627 7.20207 43.2922 7.22273 43.0678 7.26592V11.8561C43.192 11.8749 43.4193 11.8834 43.7496 11.8834C44.5219 11.8834 45.1179 11.674 45.5378 11.2553C45.9576 10.8365 46.1695 10.2262 46.1695 9.42442Z" fill="white"/>
<path d="M52.8757 10.3624C52.8757 11.0431 52.6764 11.6008 52.2777 12.0383C51.8598 12.4881 51.3061 12.7125 50.6147 12.7125C49.9483 12.7125 49.4177 12.4975 49.0219 12.0656C48.6271 11.6346 48.4297 11.091 48.4297 10.4357C48.4297 9.75027 48.6329 9.18787 49.0412 8.75129C49.4495 8.31471 49.9984 8.09595 50.6898 8.09595C51.3561 8.09595 51.8915 8.31095 52.2969 8.7419C52.6821 9.16065 52.8757 9.70145 52.8757 10.3624ZM51.8289 10.3943C51.8289 9.98593 51.7384 9.63572 51.5584 9.34373C51.3465 8.99071 51.0451 8.8142 50.6532 8.8142C50.2478 8.8142 49.9396 8.99071 49.7278 9.34373C49.5467 9.63572 49.4572 9.99156 49.4572 10.4122C49.4572 10.8206 49.5477 11.1708 49.7278 11.4628C49.9464 11.8158 50.2507 11.9923 50.6435 11.9923C51.0287 11.9923 51.3311 11.813 51.5487 11.4534C51.7355 11.1558 51.8289 10.8028 51.8289 10.3943Z" fill="white"/>
<path d="M60.4408 8.18628L59.0204 12.6122H58.096L57.5076 10.6903C57.3584 10.2105 57.237 9.73357 57.1427 9.26037H57.1244C57.0367 9.74671 56.9154 10.2227 56.7594 10.6903L56.1344 12.6122H55.1994L53.8638 8.18628H54.9009L55.4141 10.2903C55.5384 10.7879 55.6404 11.2621 55.7223 11.7109H55.7406C55.8157 11.3409 55.9399 10.8696 56.1152 10.2997L56.7594 8.18722H57.5818L58.199 10.2547C58.3483 10.7588 58.4696 11.2442 58.563 11.7118H58.591C58.6593 11.2564 58.7624 10.771 58.8991 10.2547L59.4499 8.18722H60.4408V8.18628Z" fill="white"/>
<path d="M65.6723 12.6119H64.6631V10.0769C64.6631 9.29573 64.3588 8.90516 63.7483 8.90516C63.4488 8.90516 63.2071 9.01219 63.0194 9.2272C62.8335 9.4422 62.7391 9.6957 62.7391 9.98582V12.611H61.7299V9.45065C61.7299 9.06195 61.7174 8.64039 61.6934 8.18409H62.5802L62.6274 8.87605H62.6554C62.7728 8.66105 62.9481 8.4836 63.1782 8.34182C63.4517 8.17658 63.7579 8.09302 64.0931 8.09302C64.5168 8.09302 64.8692 8.22634 65.1494 8.49392C65.498 8.8216 65.6723 9.31076 65.6723 9.96047V12.6119Z" fill="white"/>
<path d="M68.4555 12.612H67.4473V6.15527H68.4555V12.612Z" fill="white"/>
<path d="M74.3967 10.3624C74.3967 11.0431 74.1974 11.6008 73.7987 12.0383C73.3808 12.4881 72.8261 12.7125 72.1357 12.7125C71.4683 12.7125 70.9377 12.4975 70.5429 12.0656C70.1481 11.6346 69.9507 11.091 69.9507 10.4357C69.9507 9.75027 70.1539 9.18787 70.5622 8.75129C70.9705 8.31471 71.5194 8.09595 72.2098 8.09595C72.8771 8.09595 73.4116 8.31095 73.8179 8.7419C74.2031 9.16065 74.3967 9.70145 74.3967 10.3624ZM73.349 10.3943C73.349 9.98593 73.2585 9.63572 73.0784 9.34373C72.8675 8.99071 72.5651 8.8142 72.1742 8.8142C71.7678 8.8142 71.4596 8.99071 71.2488 9.34373C71.0677 9.63572 70.9782 9.99156 70.9782 10.4122C70.9782 10.8206 71.0687 11.1708 71.2488 11.4628C71.4673 11.8158 71.7717 11.9923 72.1645 11.9923C72.5497 11.9923 72.8511 11.813 73.0688 11.4534C73.2565 11.1558 73.349 10.8028 73.349 10.3943Z" fill="white"/>
<path d="M79.2809 12.612H78.3747L78.2996 12.1022H78.2717C77.9616 12.5087 77.5196 12.7125 76.9457 12.7125C76.5172 12.7125 76.1705 12.5782 75.9095 12.3116C75.6726 12.0693 75.5542 11.7679 75.5542 11.4102C75.5542 10.8694 75.7853 10.4573 76.2504 10.1718C76.7146 9.88641 77.3675 9.74651 78.2081 9.75309V9.67046C78.2081 9.08741 77.8942 8.79636 77.2654 8.79636C76.8176 8.79636 76.4228 8.90621 76.0819 9.12403L75.8768 8.47807C76.2986 8.22364 76.8195 8.09595 77.4339 8.09595C78.6203 8.09595 79.2154 8.70622 79.2154 9.92678V11.5567C79.2154 11.9989 79.2375 12.351 79.2809 12.612ZM78.2332 11.091V10.4084C77.12 10.3897 76.5634 10.6873 76.5634 11.3004C76.5634 11.5313 76.6269 11.7041 76.7569 11.8196C76.8869 11.9351 77.0526 11.9923 77.25 11.9923C77.4715 11.9923 77.6785 11.9238 77.8672 11.7877C78.0569 11.6506 78.1735 11.4769 78.2168 11.2638C78.2274 11.2159 78.2332 11.1577 78.2332 11.091Z" fill="white"/>
<path d="M85.0155 12.612H84.1199L84.0727 11.9013H84.0448C83.7588 12.4421 83.2715 12.7125 82.5869 12.7125C82.0399 12.7125 81.5844 12.5031 81.2233 12.0844C80.8622 11.6656 80.6821 11.122 80.6821 10.4544C80.6821 9.73807 80.8776 9.15784 81.2705 8.71468C81.6509 8.30157 82.1169 8.09502 82.6716 8.09502C83.2812 8.09502 83.7078 8.295 83.9504 8.69591H83.9697V6.15527H84.9798V11.4196C84.9798 11.8506 84.9914 12.2477 85.0155 12.612ZM83.9697 10.7455V10.0075C83.9697 9.87985 83.96 9.77657 83.9417 9.6977C83.8849 9.4611 83.7626 9.26206 83.5768 9.10151C83.389 8.94096 83.1627 8.86021 82.9017 8.86021C82.5252 8.86021 82.2306 9.00574 82.0139 9.29773C81.7992 9.58973 81.6903 9.96247 81.6903 10.4178C81.6903 10.8554 81.7934 11.2103 82.0004 11.4835C82.219 11.7745 82.5137 11.9201 82.8825 11.9201C83.2138 11.9201 83.4786 11.7989 83.6798 11.5558C83.8743 11.3314 83.9697 11.061 83.9697 10.7455Z" fill="white"/>
<path d="M93.6467 10.3624C93.6467 11.0431 93.4473 11.6008 93.0487 12.0383C92.6308 12.4881 92.078 12.7125 91.3856 12.7125C90.7202 12.7125 90.1897 12.4975 89.7929 12.0656C89.3981 11.6346 89.2007 11.091 89.2007 10.4357C89.2007 9.75027 89.4039 9.18787 89.8122 8.75129C90.2205 8.31471 90.7693 8.09595 91.4617 8.09595C92.1271 8.09595 92.6635 8.31095 93.0679 8.7419C93.4531 9.16065 93.6467 9.70145 93.6467 10.3624ZM92.6009 10.3943C92.6009 9.98593 92.5104 9.63572 92.3303 9.34373C92.1175 8.99071 91.8171 8.8142 91.4242 8.8142C91.0197 8.8142 90.7116 8.99071 90.4988 9.34373C90.3177 9.63572 90.2282 9.99156 90.2282 10.4122C90.2282 10.8206 90.3187 11.1708 90.4988 11.4628C90.7173 11.8158 91.0216 11.9923 91.4145 11.9923C91.7997 11.9923 92.1031 11.813 92.3207 11.4534C92.5065 11.1558 92.6009 10.8028 92.6009 10.3943Z" fill="white"/>
<path d="M99.0727 12.6119H98.0645V10.0769C98.0645 9.29573 97.7602 8.90516 97.1487 8.90516C96.8492 8.90516 96.6075 9.01219 96.4207 9.2272C96.2339 9.4422 96.1405 9.6957 96.1405 9.98582V12.611H95.1304V9.45065C95.1304 9.06195 95.1188 8.64039 95.0947 8.18409H95.9806L96.0278 8.87605H96.0558C96.1742 8.66105 96.3495 8.4836 96.5787 8.34182C96.8531 8.17658 97.1584 8.09302 97.4944 8.09302C97.9172 8.09302 98.2696 8.22634 98.5498 8.49392C98.8994 8.8216 99.0727 9.31076 99.0727 9.96047V12.6119Z" fill="white"/>
<path d="M105.865 8.92302H104.753V11.0731C104.753 11.6195 104.951 11.8927 105.342 11.8927C105.523 11.8927 105.673 11.8777 105.792 11.8467L105.818 12.5931C105.618 12.6664 105.356 12.703 105.034 12.703C104.635 12.703 104.325 12.5847 104.101 12.3481C103.875 12.1115 103.764 11.7134 103.764 11.1548V8.92302H103.1V8.186H103.764V7.3748L104.753 7.08374V8.18506H105.864V8.92302H105.865Z" fill="white"/>
<path d="M111.207 12.612H110.197V10.0958C110.197 9.30243 109.893 8.90528 109.283 8.90528C108.815 8.90528 108.495 9.13531 108.32 9.59536C108.29 9.69207 108.273 9.81037 108.273 9.94932V12.6111H107.265V6.15527H108.273V8.82266H108.292C108.61 8.33725 109.065 8.09502 109.656 8.09502C110.074 8.09502 110.419 8.22834 110.694 8.49592C111.036 8.82923 111.207 9.32496 111.207 9.98031V12.612Z" fill="white"/>
<path d="M116.718 10.1896C116.718 10.3661 116.704 10.5144 116.68 10.6355H113.654C113.667 11.0731 113.812 11.4064 114.092 11.6373C114.348 11.8439 114.678 11.9472 115.083 11.9472C115.531 11.9472 115.939 11.8777 116.307 11.7378L116.465 12.4213C116.034 12.6035 115.528 12.6945 114.941 12.6945C114.238 12.6945 113.685 12.4927 113.284 12.0889C112.881 11.6852 112.682 11.1435 112.682 10.4637C112.682 9.79618 112.868 9.24036 113.243 8.7972C113.634 8.324 114.162 8.0874 114.83 8.0874C115.482 8.0874 115.978 8.324 116.313 8.7972C116.584 9.17276 116.718 9.63751 116.718 10.1896ZM115.755 9.93514C115.763 9.64314 115.696 9.39152 115.559 9.17933C115.384 8.90611 115.117 8.76904 114.756 8.76904C114.427 8.76904 114.158 8.90236 113.953 9.16994C113.786 9.38307 113.687 9.63751 113.654 9.93514H115.755Z" fill="white"/>
</svg>
