<svg width="130" height="38" viewBox="0 0 130 38" fill="none" xmlns="http://www.w3.org/2000/svg">
<path d="M125.185 37.6072H4.81481C2.16787 37.6072 0 35.4906 0 32.9063V4.70084C0 2.11652 2.16787 -6.71513e-05 4.81481 -6.71513e-05H125.185C127.832 -6.71513e-05 130 2.11652 130 4.70084V32.9063C130 35.4906 127.832 37.6072 125.185 37.6072Z" fill="black"/>
<path d="M125.185 0.753251C127.414 0.753251 129.228 2.52432 129.228 4.70084V32.9063C129.228 35.0828 127.414 36.8539 125.185 36.8539H4.81481C2.58556 36.8539 0.771574 35.0828 0.771574 32.9063V4.70084C0.771574 2.52432 2.58556 0.753251 4.81481 0.753251H125.185ZM125.185 -6.71513e-05H4.81481C2.16787 -6.71513e-05 0 2.11652 0 4.70084V32.9063C0 35.4906 2.16787 37.6072 4.81481 37.6072H125.185C127.832 37.6072 130 35.4906 130 32.9063V4.70084C130 2.11652 127.832 -6.71513e-05 125.185 -6.71513e-05Z" fill="#A6A6A6"/>
<path d="M45.6612 9.63098C45.6612 10.416 45.4204 11.0448 44.9462 11.5137C44.4009 12.0696 43.6907 12.3493 42.8204 12.3493C41.9887 12.3493 41.2785 12.0649 40.6959 11.5043C40.1121 10.9355 39.8208 10.2374 39.8208 9.40181C39.8208 8.56623 40.1121 7.86814 40.6959 7.30403C41.2785 6.73875 41.9887 6.45435 42.8204 6.45435C43.2345 6.45435 43.6293 6.53779 44.0061 6.69292C44.3816 6.84922 44.6874 7.06076 44.9089 7.32166L44.4057 7.81761C44.0193 7.3722 43.4933 7.15243 42.8204 7.15243C42.2138 7.15243 41.6877 7.35927 41.2412 7.77648C40.7994 8.19486 40.5779 8.73664 40.5779 9.40181C40.5779 10.067 40.7994 10.6135 41.2412 11.0319C41.6877 11.4444 42.2138 11.6559 42.8204 11.6559C43.4644 11.6559 44.0061 11.4444 44.4334 11.0272C44.7151 10.751 44.8752 10.3702 44.9173 9.88366H42.8204V9.20438H45.6178C45.6515 9.35128 45.6612 9.49348 45.6612 9.63098Z" fill="white" stroke="white" stroke-width="0.16" stroke-miterlimit="10"/>
<path d="M50.0991 7.2757H47.4714V9.06205H49.8403V9.74133H47.4714V11.5277H50.0991V12.2199H46.7275V6.5835H50.0991V7.2757Z" fill="white" stroke="white" stroke-width="0.16" stroke-miterlimit="10"/>
<path d="M53.2311 12.2199H52.4872V7.2757H50.8755V6.5835H54.8441V7.2757H53.2311V12.2199Z" fill="white" stroke="white" stroke-width="0.16" stroke-miterlimit="10"/>
<path d="M57.7163 12.2199V6.5835H58.459V12.2199H57.7163Z" fill="white" stroke="white" stroke-width="0.16" stroke-miterlimit="10"/>
<path d="M61.7511 12.2199H61.0133V7.2757H59.3955V6.5835H63.3689V7.2757H61.7511V12.2199Z" fill="white" stroke="white" stroke-width="0.16" stroke-miterlimit="10"/>
<path d="M70.8825 11.4949C70.3131 12.0649 69.6078 12.3493 68.7664 12.3493C67.9202 12.3493 67.2148 12.0649 66.6455 11.4949C66.0773 10.9261 65.7944 10.228 65.7944 9.40181C65.7944 8.57563 66.0773 7.87754 66.6455 7.30874C67.2148 6.73875 67.9202 6.45435 68.7664 6.45435C69.603 6.45435 70.3083 6.73875 70.8777 7.31344C71.4506 7.88695 71.7335 8.58033 71.7335 9.40181C71.7335 10.228 71.4506 10.9261 70.8825 11.4949ZM67.1955 11.0225C67.6241 11.4444 68.1453 11.6559 68.7664 11.6559C69.3827 11.6559 69.9087 11.4444 70.3324 11.0225C70.7597 10.6005 70.9764 10.0588 70.9764 9.40181C70.9764 8.74486 70.7597 8.20308 70.3324 7.78118C69.9087 7.35927 69.3827 7.14773 68.7664 7.14773C68.1453 7.14773 67.6241 7.35927 67.1955 7.78118C66.7682 8.20308 66.5516 8.74486 66.5516 9.40181C66.5516 10.0588 66.7682 10.6005 67.1955 11.0225Z" fill="white" stroke="white" stroke-width="0.16" stroke-miterlimit="10"/>
<path d="M72.7773 12.2199V6.5835H73.6801L76.4872 10.9671H76.5197L76.4872 9.88353V6.5835H77.2298V12.2199H76.4547L73.5152 7.62005H73.4827L73.5152 8.7083V12.2199H72.7773Z" fill="white" stroke="white" stroke-width="0.16" stroke-miterlimit="10"/>
<path d="M65.6115 20.4513C63.3497 20.4513 61.5021 22.1319 61.5021 24.4506C61.5021 26.7505 63.3497 28.4487 65.6115 28.4487C67.8781 28.4487 69.7258 26.7505 69.7258 24.4506C69.7258 22.1319 67.8781 20.4513 65.6115 20.4513ZM65.6115 26.8739C64.3705 26.8739 63.3028 25.8738 63.3028 24.4506C63.3028 23.0086 64.3705 22.0261 65.6115 22.0261C66.8525 22.0261 67.925 23.0086 67.925 24.4506C67.925 25.8738 66.8525 26.8739 65.6115 26.8739ZM56.6451 20.4513C54.3785 20.4513 52.5357 22.1319 52.5357 24.4506C52.5357 26.7505 54.3785 28.4487 56.6451 28.4487C58.9105 28.4487 60.7545 26.7505 60.7545 24.4506C60.7545 22.1319 58.9105 20.4513 56.6451 20.4513ZM56.6451 26.8739C55.4029 26.8739 54.3316 25.8738 54.3316 24.4506C54.3316 23.0086 55.4029 22.0261 56.6451 22.0261C57.8861 22.0261 58.9538 23.0086 58.9538 24.4506C58.9538 25.8738 57.8861 26.8739 56.6451 26.8739ZM45.9755 21.6771V23.3765H50.1319C50.0103 24.3261 49.6853 25.0241 49.187 25.5107C48.5803 26.0983 47.6354 26.7505 45.9755 26.7505C43.4176 26.7505 41.4146 24.735 41.4146 22.2377C41.4146 19.7403 43.4176 17.7248 45.9755 17.7248C47.3585 17.7248 48.3648 18.2525 49.1075 18.9365L50.3341 17.7389C49.2953 16.7705 47.9134 16.0266 45.9755 16.0266C42.4679 16.0266 39.52 18.8131 39.52 22.2377C39.52 25.6623 42.4679 28.4487 45.9755 28.4487C47.8713 28.4487 49.2953 27.8423 50.4147 26.7047C51.5619 25.5847 51.9194 24.0099 51.9194 22.7383C51.9194 22.3434 51.8857 21.9803 51.8255 21.6771H45.9755ZM89.6049 22.9945C89.2667 22.1002 88.2231 20.4513 86.0973 20.4513C83.9908 20.4513 82.237 22.072 82.237 24.4506C82.237 26.6906 83.9728 28.4487 86.2995 28.4487C88.1809 28.4487 89.2667 27.3288 89.7132 26.6765L88.3169 25.7681C87.8511 26.4332 87.2168 26.8739 86.2995 26.8739C85.3883 26.8739 84.7347 26.4661 84.3158 25.6623L89.7939 23.4493L89.6049 22.9945ZM84.0197 24.3261C83.9728 22.7842 85.2463 21.9944 86.1587 21.9944C86.8737 21.9944 87.4804 22.3434 87.6826 22.8429L84.0197 24.3261ZM79.5672 28.2055H81.368V16.4532H79.5672V28.2055ZM76.6182 21.3422H76.558C76.1535 20.8744 75.382 20.4513 74.4045 20.4513C72.3534 20.4513 70.4781 22.2095 70.4781 24.4636C70.4781 26.7047 72.3534 28.4487 74.4045 28.4487C75.382 28.4487 76.1535 28.0221 76.558 27.5403H76.6182V28.1138C76.6182 29.6428 75.7816 30.4643 74.4322 30.4643C73.332 30.4643 72.6495 29.6886 72.3679 29.0364L70.8019 29.6745C71.2532 30.7346 72.4485 32.0391 74.4322 32.0391C76.5435 32.0391 78.325 30.8262 78.325 27.8752V20.6946H76.6182V21.3422ZM74.5586 26.8739C73.3176 26.8739 72.2788 25.8597 72.2788 24.4636C72.2788 23.0545 73.3176 22.0261 74.5586 22.0261C75.7816 22.0261 76.7458 23.0545 76.7458 24.4636C76.7458 25.8597 75.7816 26.8739 74.5586 26.8739ZM98.0356 16.4532H93.7288V28.2055H95.5247V23.7525H98.0356C100.03 23.7525 101.986 22.3434 101.986 20.1023C101.986 17.8623 100.025 16.4532 98.0356 16.4532ZM98.0826 22.1178H95.5247V18.088H98.0826C99.4235 18.088 100.189 19.175 100.189 20.1023C100.189 21.0119 99.4235 22.1178 98.0826 22.1178ZM109.184 20.429C107.887 20.429 106.537 20.9884 105.982 22.2283L107.576 22.8805C107.919 22.2283 108.55 22.0167 109.217 22.0167C110.149 22.0167 111.093 22.5632 111.108 23.5281V23.6515C110.783 23.4681 110.087 23.1967 109.231 23.1967C107.515 23.1967 105.766 24.1192 105.766 25.8409C105.766 27.4157 107.172 28.4299 108.752 28.4299C109.961 28.4299 110.628 27.8976 111.046 27.2782H111.108V28.1867H112.842V23.6785C112.842 21.5948 111.249 20.429 109.184 20.429ZM108.968 26.8692C108.38 26.8692 107.562 26.5848 107.562 25.8738C107.562 24.9642 108.582 24.6152 109.466 24.6152C110.257 24.6152 110.628 24.7856 111.108 25.01C110.967 26.0983 110.008 26.8692 108.968 26.8692ZM119.162 20.6864L117.097 25.781H117.036L114.902 20.6864H112.965L116.172 27.8059L114.342 31.7676H116.219L121.16 20.6864H119.162ZM102.973 28.2055H104.774V16.4532H102.973V28.2055Z" fill="white"/>
<path d="M10.0486 7.08781C9.76575 7.37692 9.60205 7.82703 9.60205 8.40995V29.2021C9.60205 29.785 9.76575 30.2351 10.0486 30.5242L10.1184 30.5876L22.052 18.9412V18.6661L10.1184 7.01965L10.0486 7.08781Z" fill="url(#paint0_linear_3147_2333)"/>
<path d="M26.0252 22.8252L22.0518 18.9411V18.6661L26.03 14.7819L26.1191 14.8325L30.8304 17.4497C32.1749 18.1925 32.1749 19.4147 30.8304 20.1621L26.1191 22.7747L26.0252 22.8252Z" fill="url(#paint1_linear_3147_2333)"/>
<path d="M26.119 22.7747L22.0517 18.8036L10.0483 30.5241C10.4949 30.9824 11.2232 31.0377 12.0513 30.5793L26.119 22.7747Z" fill="url(#paint2_linear_3147_2333)"/>
<path d="M26.119 14.8324L12.0513 7.0277C11.2232 6.57406 10.4949 6.6293 10.0483 7.08763L22.0517 18.8035L26.119 14.8324Z" fill="url(#paint3_linear_3147_2333)"/>
<defs>
<linearGradient id="paint0_linear_3147_2333" x1="20.9924" y1="29.4186" x2="5.21843" y2="13.2624" gradientUnits="userSpaceOnUse">
<stop stop-color="#00A0FF"/>
<stop offset="0.0066" stop-color="#00A1FF"/>
<stop offset="0.2601" stop-color="#00BEFF"/>
<stop offset="0.5122" stop-color="#00D2FF"/>
<stop offset="0.7604" stop-color="#00DFFF"/>
<stop offset="1" stop-color="#00E3FF"/>
</linearGradient>
<linearGradient id="paint1_linear_3147_2333" x1="32.5812" y1="18.8023" x2="9.28046" y2="18.8023" gradientUnits="userSpaceOnUse">
<stop stop-color="#FFE000"/>
<stop offset="0.4087" stop-color="#FFBD00"/>
<stop offset="0.7754" stop-color="#FFA500"/>
<stop offset="1" stop-color="#FF9C00"/>
</linearGradient>
<linearGradient id="paint2_linear_3147_2333" x1="23.9073" y1="16.6448" x2="2.51651" y2="-5.26429" gradientUnits="userSpaceOnUse">
<stop stop-color="#FF3A44"/>
<stop offset="1" stop-color="#C31162"/>
</linearGradient>
<linearGradient id="paint3_linear_3147_2333" x1="7.02685" y1="37.4414" x2="16.5788" y2="27.6581" gradientUnits="userSpaceOnUse">
<stop stop-color="#32A071"/>
<stop offset="0.0685" stop-color="#2DA771"/>
<stop offset="0.4762" stop-color="#15CF74"/>
<stop offset="0.8009" stop-color="#06E775"/>
<stop offset="1" stop-color="#00F076"/>
</linearGradient>
</defs>
</svg>
