<svg width="97" height="52" viewBox="0 0 97 52" fill="none" xmlns="http://www.w3.org/2000/svg">
<path fill-rule="evenodd" clip-rule="evenodd" d="M53.5954 49.5644C59.9565 52.5602 68.729 50.5108 76.1903 47.1173C83.1498 43.9518 91.0613 38.6552 95.0879 31.949C97.6438 27.6954 97.0726 23.1211 95.0635 19.0983H87.363C82.6011 19.0983 80.216 21.4826 80.216 26.252V37.4847H77.1555V26.252C77.1555 19.4407 80.5583 16.0378 87.363 16.0378H93.1989C92.6643 15.2978 92.0893 14.5896 91.4881 13.9209C89.7116 11.9446 87.0291 10.0763 84.7171 8.30452C82.4858 6.59466 80.0649 5.2506 76.8497 3.74896C71.3074 1.15931 62.5077 -1.2043 56.1644 0.67908C52.4342 1.78585 50.9523 3.56699 49.2331 6.23824C48.8729 6.23824 46.7297 10.6456 45.9728 15.3775C44.6034 23.9493 44.2554 45.1655 53.5954 49.5644ZM72.553 17.5714C71.1939 17.5714 70.5102 16.8876 70.5102 15.5285C70.5102 14.162 71.1939 13.4848 72.553 13.4848C73.9205 13.4848 74.5968 14.162 74.5968 15.5285C74.5968 16.8876 73.9205 17.5714 72.553 17.5714ZM71.026 37.4847V24.4558L67.958 25.1733V30.3376C67.958 35.1005 65.5738 37.4847 60.8044 37.4847H53.6582C48.8888 37.4847 46.5112 35.4419 46.5112 31.3553C46.5112 28.3858 47.5429 26.6844 49.6139 26.252L52.2598 25.6498L64.8685 22.7628C64.7447 20.3204 63.3856 19.0983 60.8044 19.0983H53.6582C50.9317 19.0983 49.5717 20.464 49.5717 23.184H46.5112C46.5112 18.4221 48.8888 16.0369 53.6582 16.0369H60.8044C65.1855 16.0369 67.5529 18.0487 67.9102 22.0669L74.0875 20.6534V37.4847H71.026ZM60.8044 34.4167C63.531 34.4167 64.8901 33.0577 64.8901 30.3376V25.9452L50.4092 29.2712C49.8512 29.4663 49.5717 29.8152 49.5717 30.3376C49.5717 33.0577 50.9317 34.4167 53.6582 34.4167H60.8044Z" fill="url(#paint0_linear_3093_2523)"/>
<path fill-rule="evenodd" clip-rule="evenodd" d="M14.1622 16.7674C18.5656 17.9303 21.5555 21.6981 21.5555 26.6441C21.5555 32.634 17.1724 36.9347 11.2029 36.9347C5.22823 36.9347 0.80957 32.634 0.80957 26.6441C0.80957 22.1502 3.296 18.6285 7.06384 17.1498V19.9057C4.94856 21.2222 3.60112 23.608 3.60112 26.6441C3.60112 31.3669 6.86046 34.5154 11.2029 34.5154C15.5453 34.5154 18.764 31.3669 18.764 26.6441C18.764 23.0802 16.9283 20.4127 14.1622 19.3184V16.7674ZM34.8574 16.3921C31.3285 16.3921 28.5726 17.8128 27.098 20.2703V16.5457H24.464V36.7425H27.2149V26.1448C27.2149 21.5374 29.9709 18.8496 34.3489 18.8496C38.2286 18.8496 40.4761 21.0381 40.4761 25.3002V36.7425H43.232V25.0317C43.232 19.2335 39.8202 16.3921 34.8574 16.3921ZM12.3775 14.0745C12.3775 13.6036 12.1893 13.1521 11.8537 12.8195C11.5232 12.4865 11.0706 12.2999 10.6028 12.2999H10.5978C10.13 12.2999 9.67742 12.4865 9.34182 12.8195C9.01131 13.1521 8.82316 13.6036 8.82316 14.0745V25.6826C8.82316 26.1534 9.01131 26.6045 9.34182 26.9375C9.67742 27.2701 10.13 27.4572 10.5978 27.4572H10.6028C11.0706 27.4572 11.5232 27.2701 11.8537 26.9375C12.1893 26.6045 12.3775 26.1534 12.3775 25.6826V14.0745Z" fill="white"/>
<defs>
<linearGradient id="paint0_linear_3093_2523" x1="94.2822" y1="72.739" x2="68.719" y2="8.38349" gradientUnits="userSpaceOnUse">
<stop stop-color="#8E04B7"/>
<stop offset="1" stop-color="#E13C52"/>
</linearGradient>
</defs>
</svg>
