<svg width="293" height="28" viewBox="0 0 293 28" fill="none" xmlns="http://www.w3.org/2000/svg">
<path d="M21 23L16.514 18.506L21 23ZM19 12.5C19 14.7543 18.1045 16.9163 16.5104 18.5104C14.9163 20.1045 12.7543 21 10.5 21C8.24566 21 6.08365 20.1045 4.48959 18.5104C2.89553 16.9163 2 14.7543 2 12.5C2 10.2457 2.89553 8.08365 4.48959 6.48959C6.08365 4.89553 8.24566 4 10.5 4C12.7543 4 14.9163 4.89553 16.5104 6.48959C18.1045 8.08365 19 10.2457 19 12.5V12.5Z" stroke="white" stroke-width="2" stroke-linecap="round"/>
<path d="M44 8.968C43.84 8.792 43.608 8.608 43.304 8.416C43 8.208 42.64 8.016 42.224 7.84C41.808 7.664 41.36 7.52 40.88 7.408C40.4 7.296 39.904 7.24 39.392 7.24C38.272 7.24 37.44 7.448 36.896 7.864C36.352 8.28 36.08 8.856 36.08 9.592C36.08 10.136 36.232 10.568 36.536 10.888C36.84 11.192 37.304 11.448 37.928 11.656C38.552 11.864 39.336 12.088 40.28 12.328C41.432 12.6 42.432 12.928 43.28 13.312C44.128 13.68 44.776 14.176 45.224 14.8C45.672 15.424 45.896 16.248 45.896 17.272C45.896 18.136 45.736 18.88 45.416 19.504C45.096 20.128 44.648 20.64 44.072 21.04C43.496 21.424 42.832 21.712 42.08 21.904C41.328 22.08 40.52 22.168 39.656 22.168C38.808 22.168 37.96 22.08 37.112 21.904C36.28 21.728 35.48 21.472 34.712 21.136C33.96 20.784 33.264 20.36 32.624 19.864L33.848 17.56C34.056 17.768 34.352 18 34.736 18.256C35.136 18.496 35.592 18.728 36.104 18.952C36.632 19.176 37.2 19.368 37.808 19.528C38.432 19.672 39.064 19.744 39.704 19.744C40.776 19.744 41.592 19.56 42.152 19.192C42.728 18.808 43.016 18.264 43.016 17.56C43.016 16.984 42.832 16.528 42.464 16.192C42.096 15.84 41.56 15.544 40.856 15.304C40.152 15.064 39.312 14.824 38.336 14.584C37.216 14.28 36.28 13.952 35.528 13.6C34.776 13.232 34.208 12.768 33.824 12.208C33.456 11.632 33.272 10.904 33.272 10.024C33.272 8.904 33.544 7.96 34.088 7.192C34.632 6.408 35.368 5.824 36.296 5.44C37.24 5.04 38.296 4.84 39.464 4.84C40.232 4.84 40.96 4.928 41.648 5.104C42.336 5.264 42.976 5.488 43.568 5.776C44.176 6.064 44.728 6.392 45.224 6.76L44 8.968ZM53.9439 22.24C52.9679 22.24 52.0799 22.072 51.2799 21.736C50.4959 21.384 49.8159 20.912 49.2399 20.32C48.6639 19.712 48.2159 19.024 47.8959 18.256C47.5919 17.472 47.4399 16.64 47.4399 15.76C47.4399 14.576 47.7119 13.496 48.2559 12.52C48.7999 11.528 49.5599 10.736 50.5359 10.144C51.5119 9.536 52.6559 9.232 53.9679 9.232C55.2799 9.232 56.4079 9.536 57.3519 10.144C58.3119 10.736 59.0559 11.52 59.5839 12.496C60.1119 13.472 60.3759 14.52 60.3759 15.64C60.3759 15.832 60.3679 16.016 60.3519 16.192C60.3359 16.352 60.3199 16.488 60.3039 16.6H50.2479C50.2959 17.336 50.4959 17.984 50.8479 18.544C51.2159 19.088 51.6799 19.52 52.2399 19.84C52.7999 20.144 53.3999 20.296 54.0399 20.296C54.7439 20.296 55.4079 20.12 56.0319 19.768C56.6719 19.416 57.1039 18.952 57.3279 18.376L59.5839 19.024C59.3119 19.632 58.8959 20.184 58.3359 20.68C57.7919 21.16 57.1439 21.544 56.3919 21.832C55.6399 22.104 54.8239 22.24 53.9439 22.24ZM50.1759 14.848H57.7599C57.7119 14.128 57.5039 13.496 57.1359 12.952C56.7839 12.392 56.3279 11.96 55.7679 11.656C55.2239 11.336 54.6159 11.176 53.9439 11.176C53.2879 11.176 52.6799 11.336 52.1199 11.656C51.5759 11.96 51.1279 12.392 50.7759 12.952C50.4239 13.496 50.2239 14.128 50.1759 14.848ZM61.6173 18.328C61.6173 17.528 61.8413 16.832 62.2893 16.24C62.7533 15.632 63.3853 15.168 64.1853 14.848C64.9853 14.512 65.9133 14.344 66.9693 14.344C67.5293 14.344 68.0973 14.384 68.6733 14.464C69.2653 14.544 69.7853 14.672 70.2333 14.848V14.056C70.2333 13.176 69.9693 12.488 69.4413 11.992C68.9133 11.496 68.1533 11.248 67.1613 11.248C66.4573 11.248 65.7933 11.376 65.1693 11.632C64.5453 11.872 63.8813 12.216 63.1773 12.664L62.2893 10.888C63.1213 10.328 63.9533 9.912 64.7853 9.64C65.6333 9.368 66.5213 9.232 67.4493 9.232C69.1293 9.232 70.4493 9.68 71.4093 10.576C72.3853 11.456 72.8733 12.712 72.8733 14.344V19.024C72.8733 19.328 72.9213 19.544 73.0173 19.672C73.1293 19.8 73.3133 19.872 73.5693 19.888V22C73.3293 22.048 73.1133 22.08 72.9213 22.096C72.7293 22.112 72.5693 22.12 72.4413 22.12C71.8813 22.12 71.4573 21.984 71.1693 21.712C70.8813 21.44 70.7133 21.12 70.6653 20.752L70.5933 20.032C70.0493 20.736 69.3533 21.28 68.5053 21.664C67.6573 22.048 66.8013 22.24 65.9373 22.24C65.1053 22.24 64.3613 22.072 63.7053 21.736C63.0493 21.384 62.5373 20.912 62.1693 20.32C61.8013 19.728 61.6173 19.064 61.6173 18.328ZM69.6093 19.096C69.8013 18.888 69.9533 18.68 70.0653 18.472C70.1773 18.264 70.2333 18.08 70.2333 17.92V16.48C69.7853 16.304 69.3133 16.176 68.8173 16.096C68.3213 16 67.8333 15.952 67.3533 15.952C66.3933 15.952 65.6093 16.144 65.0013 16.528C64.4093 16.912 64.1133 17.44 64.1133 18.112C64.1133 18.48 64.2093 18.832 64.4013 19.168C64.6093 19.504 64.8973 19.776 65.2653 19.984C65.6493 20.192 66.1213 20.296 66.6813 20.296C67.2573 20.296 67.8093 20.184 68.3373 19.96C68.8653 19.736 69.2893 19.448 69.6093 19.096ZM83.1322 11.728C82.1082 11.744 81.1962 11.976 80.3962 12.424C79.6122 12.872 79.0522 13.504 78.7162 14.32V22H76.0762V9.448H78.5242V12.256C78.9562 11.392 79.5242 10.704 80.2282 10.192C80.9322 9.664 81.6762 9.376 82.4602 9.328C82.6202 9.328 82.7482 9.328 82.8442 9.328C82.9562 9.328 83.0522 9.336 83.1322 9.352V11.728ZM90.5064 22.24C89.5304 22.24 88.6424 22.072 87.8424 21.736C87.0584 21.384 86.3784 20.904 85.8024 20.296C85.2264 19.688 84.7784 18.992 84.4584 18.208C84.1544 17.424 84.0024 16.592 84.0024 15.712C84.0024 14.528 84.2664 13.448 84.7944 12.472C85.3384 11.496 86.0904 10.712 87.0504 10.12C88.0264 9.528 89.1784 9.232 90.5064 9.232C91.7864 9.232 92.8984 9.52 93.8424 10.096C94.8024 10.656 95.5064 11.408 95.9544 12.352L93.3864 13.168C93.0984 12.64 92.6904 12.232 92.1624 11.944C91.6504 11.64 91.0824 11.488 90.4584 11.488C89.7544 11.488 89.1144 11.672 88.5384 12.04C87.9784 12.392 87.5304 12.888 87.1944 13.528C86.8744 14.152 86.7144 14.88 86.7144 15.712C86.7144 16.512 86.8824 17.24 87.2184 17.896C87.5544 18.536 88.0024 19.048 88.5624 19.432C89.1384 19.8 89.7784 19.984 90.4824 19.984C90.9144 19.984 91.3304 19.912 91.7304 19.768C92.1464 19.608 92.5064 19.4 92.8104 19.144C93.1144 18.872 93.3304 18.576 93.4584 18.256L96.0504 19.024C95.7784 19.648 95.3704 20.2 94.8264 20.68C94.2984 21.16 93.6664 21.544 92.9304 21.832C92.2104 22.104 91.4024 22.24 90.5064 22.24ZM109.481 22H106.841V14.968C106.841 13.832 106.633 12.984 106.217 12.424C105.801 11.864 105.217 11.584 104.465 11.584C104.001 11.584 103.521 11.712 103.025 11.968C102.529 12.224 102.089 12.576 101.705 13.024C101.321 13.456 101.041 13.96 100.865 14.536V22H98.2246V4.48H100.865V11.968C101.345 11.12 102.001 10.456 102.833 9.976C103.665 9.48 104.561 9.232 105.521 9.232C106.305 9.232 106.953 9.368 107.465 9.64C107.977 9.912 108.377 10.288 108.665 10.768C108.969 11.232 109.177 11.776 109.289 12.4C109.417 13.008 109.481 13.656 109.481 14.344V22Z" fill="white"/>
<path d="M193.5 8C192.758 8 192.033 8.21993 191.417 8.63199C190.8 9.04404 190.319 9.62971 190.035 10.3149C189.752 11.0002 189.677 11.7542 189.822 12.4816C189.967 13.209 190.324 13.8772 190.848 14.4017C191.373 14.9261 192.041 15.2833 192.768 15.4279C193.496 15.5726 194.25 15.4984 194.935 15.2145C195.62 14.9307 196.206 14.4501 196.618 13.8334C197.03 13.2167 197.25 12.4917 197.25 11.75C197.25 10.7554 196.855 9.80161 196.152 9.09835C195.448 8.39509 194.495 8 193.5 8ZM193.5 14C193.055 14 192.62 13.868 192.25 13.6208C191.88 13.3736 191.592 13.0222 191.421 12.611C191.251 12.1999 191.206 11.7475 191.293 11.311C191.38 10.8746 191.594 10.4737 191.909 10.159C192.224 9.84434 192.625 9.63005 193.061 9.54323C193.498 9.45642 193.95 9.50097 194.361 9.67127C194.772 9.84157 195.124 10.13 195.371 10.5C195.618 10.87 195.75 11.305 195.75 11.75C195.749 12.3466 195.512 12.9185 195.09 13.3403C194.669 13.7622 194.097 13.9994 193.5 14Z" fill="white"/>
<path d="M193.5 3.5C191.423 3.5 189.393 4.11581 187.667 5.26957C185.94 6.42332 184.594 8.0632 183.799 9.98182C183.005 11.9004 182.797 14.0116 183.202 16.0484C183.607 18.0852 184.607 19.9562 186.075 21.4246C187.544 22.8931 189.415 23.8931 191.452 24.2982C193.488 24.7034 195.6 24.4955 197.518 23.7007C199.437 22.906 201.077 21.5602 202.23 19.8335C203.384 18.1068 204 16.0767 204 14C203.997 11.2162 202.89 8.54733 200.921 6.57889C198.953 4.61044 196.284 3.50318 193.5 3.5ZM189 21.7828V20.75C189.001 20.1534 189.238 19.5815 189.66 19.1597C190.082 18.7378 190.653 18.5006 191.25 18.5H195.75C196.347 18.5006 196.919 18.7378 197.34 19.1597C197.762 19.5815 197.999 20.1534 198 20.75V21.7828C196.634 22.5802 195.081 23.0004 193.5 23.0004C191.919 23.0004 190.366 22.5802 189 21.7828ZM199.494 20.6945C199.479 19.7107 199.078 18.7722 198.378 18.0812C197.678 17.3901 196.734 17.0019 195.75 17H191.25C190.266 17.0019 189.322 17.3901 188.622 18.0812C187.922 18.7722 187.521 19.7107 187.506 20.6945C186.146 19.4801 185.187 17.8812 184.756 16.1095C184.324 14.3378 184.442 12.477 185.091 10.7734C185.741 9.06978 186.893 7.60375 188.395 6.56942C189.897 5.5351 191.677 4.98127 193.5 4.98127C195.324 4.98127 197.104 5.5351 198.606 6.56942C200.107 7.60375 201.259 9.06978 201.909 10.7734C202.559 12.477 202.676 14.3378 202.245 16.1095C201.814 17.8812 200.855 19.4801 199.495 20.6945H199.494Z" fill="white"/>
<path d="M221.204 22.24C219.716 22.24 218.468 22.024 217.46 21.592C216.468 21.144 215.708 20.568 215.18 19.864C214.668 19.144 214.396 18.392 214.364 17.608C214.364 17.464 214.412 17.344 214.508 17.248C214.604 17.152 214.724 17.104 214.868 17.104H217.004C217.212 17.104 217.364 17.152 217.46 17.248C217.572 17.328 217.668 17.432 217.748 17.56C217.844 17.864 218.028 18.168 218.3 18.472C218.572 18.76 218.94 19 219.404 19.192C219.884 19.384 220.484 19.48 221.204 19.48C222.356 19.48 223.212 19.288 223.772 18.904C224.348 18.52 224.636 18 224.636 17.344C224.636 16.88 224.484 16.512 224.18 16.24C223.876 15.952 223.404 15.696 222.764 15.472C222.14 15.232 221.308 14.984 220.268 14.728C219.068 14.44 218.06 14.096 217.244 13.696C216.444 13.28 215.836 12.76 215.42 12.136C215.02 11.512 214.82 10.72 214.82 9.76C214.82 8.832 215.068 8.008 215.564 7.288C216.076 6.568 216.796 6 217.724 5.584C218.668 5.168 219.788 4.96 221.084 4.96C222.124 4.96 223.044 5.104 223.844 5.392C224.644 5.664 225.308 6.032 225.836 6.496C226.364 6.944 226.764 7.432 227.036 7.96C227.324 8.472 227.476 8.976 227.492 9.472C227.492 9.6 227.444 9.72 227.348 9.832C227.268 9.928 227.148 9.976 226.988 9.976H224.756C224.628 9.976 224.5 9.944 224.372 9.88C224.244 9.816 224.14 9.696 224.06 9.52C223.964 9.024 223.652 8.6 223.124 8.248C222.596 7.896 221.916 7.72 221.084 7.72C220.22 7.72 219.524 7.88 218.996 8.2C218.468 8.52 218.204 9.016 218.204 9.688C218.204 10.136 218.332 10.512 218.588 10.816C218.86 11.104 219.284 11.36 219.86 11.584C220.452 11.808 221.228 12.048 222.188 12.304C223.548 12.608 224.66 12.96 225.524 13.36C226.388 13.76 227.02 14.272 227.42 14.896C227.82 15.504 228.02 16.28 228.02 17.224C228.02 18.28 227.732 19.184 227.156 19.936C226.596 20.672 225.804 21.24 224.78 21.64C223.756 22.04 222.564 22.24 221.204 22.24ZM231.058 22C230.898 22 230.762 21.944 230.65 21.832C230.538 21.72 230.482 21.584 230.482 21.424V10.096C230.482 9.936 230.538 9.8 230.65 9.688C230.762 9.576 230.898 9.52 231.058 9.52H233.05C233.226 9.52 233.362 9.576 233.458 9.688C233.57 9.8 233.626 9.936 233.626 10.096V21.424C233.626 21.584 233.57 21.72 233.458 21.832C233.362 21.944 233.226 22 233.05 22H231.058ZM230.962 7.456C230.786 7.456 230.642 7.408 230.53 7.312C230.434 7.2 230.386 7.056 230.386 6.88V5.152C230.386 4.992 230.434 4.856 230.53 4.744C230.642 4.632 230.786 4.576 230.962 4.576H233.146C233.322 4.576 233.466 4.632 233.578 4.744C233.69 4.856 233.746 4.992 233.746 5.152V6.88C233.746 7.056 233.69 7.2 233.578 7.312C233.466 7.408 233.322 7.456 233.146 7.456H230.962ZM242.451 27.28C241.283 27.28 240.323 27.128 239.571 26.824C238.819 26.52 238.227 26.152 237.795 25.72C237.363 25.288 237.051 24.856 236.859 24.424C236.683 24.008 236.587 23.68 236.571 23.44C236.555 23.28 236.603 23.136 236.715 23.008C236.843 22.896 236.987 22.84 237.147 22.84H239.235C239.395 22.84 239.523 22.872 239.619 22.936C239.715 23.016 239.795 23.152 239.859 23.344C239.955 23.552 240.083 23.776 240.243 24.016C240.403 24.256 240.643 24.456 240.963 24.616C241.299 24.792 241.755 24.88 242.331 24.88C242.939 24.88 243.451 24.792 243.867 24.616C244.283 24.44 244.595 24.144 244.803 23.728C245.027 23.312 245.139 22.736 245.139 22V20.368C244.755 20.832 244.259 21.208 243.651 21.496C243.059 21.784 242.323 21.928 241.443 21.928C240.579 21.928 239.835 21.792 239.211 21.52C238.587 21.232 238.067 20.84 237.651 20.344C237.235 19.832 236.915 19.232 236.691 18.544C236.483 17.856 236.363 17.096 236.331 16.264C236.315 15.832 236.315 15.4 236.331 14.968C236.363 14.168 236.483 13.424 236.691 12.736C236.899 12.048 237.211 11.448 237.627 10.936C238.059 10.408 238.587 10 239.211 9.712C239.835 9.424 240.579 9.28 241.443 9.28C242.355 9.28 243.123 9.456 243.747 9.808C244.371 10.144 244.883 10.568 245.283 11.08V10.12C245.283 9.944 245.339 9.8 245.451 9.688C245.563 9.576 245.699 9.52 245.859 9.52H247.803C247.963 9.52 248.099 9.576 248.211 9.688C248.323 9.8 248.379 9.944 248.379 10.12L248.403 21.688C248.403 22.84 248.187 23.832 247.755 24.664C247.323 25.496 246.667 26.136 245.787 26.584C244.923 27.048 243.811 27.28 242.451 27.28ZM242.331 19.384C242.987 19.384 243.515 19.24 243.915 18.952C244.315 18.664 244.611 18.288 244.803 17.824C244.995 17.36 245.107 16.888 245.139 16.408C245.155 16.2 245.163 15.936 245.163 15.616C245.163 15.296 245.155 15.04 245.139 14.848C245.107 14.352 244.995 13.88 244.803 13.432C244.611 12.968 244.315 12.592 243.915 12.304C243.515 12 242.987 11.848 242.331 11.848C241.675 11.848 241.147 12 240.747 12.304C240.347 12.592 240.059 12.976 239.883 13.456C239.723 13.936 239.627 14.464 239.595 15.04C239.563 15.424 239.563 15.816 239.595 16.216C239.627 16.776 239.723 17.304 239.883 17.8C240.059 18.28 240.347 18.664 240.747 18.952C241.147 19.24 241.675 19.384 242.331 19.384ZM252.176 22C252.016 22 251.88 21.944 251.768 21.832C251.656 21.72 251.6 21.584 251.6 21.424V10.096C251.6 9.936 251.656 9.8 251.768 9.688C251.88 9.576 252.016 9.52 252.176 9.52H254.144C254.304 9.52 254.44 9.576 254.552 9.688C254.664 9.8 254.72 9.936 254.72 10.096V11.08C255.136 10.568 255.664 10.144 256.304 9.808C256.96 9.456 257.768 9.28 258.728 9.28C259.704 9.28 260.552 9.504 261.272 9.952C261.992 10.384 262.544 11 262.928 11.8C263.328 12.6 263.528 13.56 263.528 14.68V21.424C263.528 21.584 263.472 21.72 263.36 21.832C263.248 21.944 263.112 22 262.952 22H260.84C260.68 22 260.544 21.944 260.432 21.832C260.32 21.72 260.264 21.584 260.264 21.424V14.824C260.264 13.896 260.032 13.168 259.568 12.64C259.12 12.112 258.464 11.848 257.6 11.848C256.768 11.848 256.104 12.112 255.608 12.64C255.112 13.168 254.864 13.896 254.864 14.824V21.424C254.864 21.584 254.808 21.72 254.696 21.832C254.584 21.944 254.448 22 254.288 22H252.176ZM272.637 22C272.477 22 272.341 21.944 272.229 21.832C272.117 21.72 272.061 21.584 272.061 21.424V10.096C272.061 9.936 272.117 9.8 272.229 9.688C272.341 9.576 272.477 9.52 272.637 9.52H274.629C274.805 9.52 274.941 9.576 275.037 9.688C275.149 9.8 275.205 9.936 275.205 10.096V21.424C275.205 21.584 275.149 21.72 275.037 21.832C274.941 21.944 274.805 22 274.629 22H272.637ZM272.541 7.456C272.365 7.456 272.221 7.408 272.109 7.312C272.013 7.2 271.965 7.056 271.965 6.88V5.152C271.965 4.992 272.013 4.856 272.109 4.744C272.221 4.632 272.365 4.576 272.541 4.576H274.725C274.901 4.576 275.045 4.632 275.157 4.744C275.269 4.856 275.325 4.992 275.325 5.152V6.88C275.325 7.056 275.269 7.2 275.157 7.312C275.045 7.408 274.901 7.456 274.725 7.456H272.541ZM278.965 22C278.805 22 278.669 21.944 278.557 21.832C278.445 21.72 278.389 21.584 278.389 21.424V10.096C278.389 9.936 278.445 9.8 278.557 9.688C278.669 9.576 278.805 9.52 278.965 9.52H280.933C281.093 9.52 281.229 9.576 281.341 9.688C281.453 9.8 281.509 9.936 281.509 10.096V11.08C281.925 10.568 282.453 10.144 283.093 9.808C283.749 9.456 284.557 9.28 285.517 9.28C286.493 9.28 287.341 9.504 288.061 9.952C288.781 10.384 289.333 11 289.717 11.8C290.117 12.6 290.317 13.56 290.317 14.68V21.424C290.317 21.584 290.261 21.72 290.149 21.832C290.037 21.944 289.901 22 289.741 22H287.629C287.469 22 287.333 21.944 287.221 21.832C287.109 21.72 287.053 21.584 287.053 21.424V14.824C287.053 13.896 286.821 13.168 286.357 12.64C285.909 12.112 285.253 11.848 284.389 11.848C283.557 11.848 282.893 12.112 282.397 12.64C281.901 13.168 281.653 13.896 281.653 14.824V21.424C281.653 21.584 281.597 21.72 281.485 21.832C281.373 21.944 281.237 22 281.077 22H278.965Z" fill="white"/>
</svg>
