<svg width="171" height="91" viewBox="0 0 171 91" fill="none" xmlns="http://www.w3.org/2000/svg">
<path fill-rule="evenodd" clip-rule="evenodd" d="M93.4171 88.4164C104.758 93.7527 120.406 90.0958 133.715 84.0462C146.13 78.3938 160.243 68.9492 167.43 56.989C171.981 49.4007 170.97 41.2419 167.385 34.0663H153.642C145.155 34.0663 140.902 38.3209 140.902 46.8274V66.8634H135.439V46.8274C135.439 34.6758 141.507 28.6072 153.642 28.6072H164.053C163.105 27.288 162.076 26.0239 161.001 24.8303C157.832 21.3061 153.056 17.9752 148.929 14.8122C144.947 11.763 140.631 9.36489 134.889 6.6868C125.01 2.06832 109.309 -2.14839 97.9949 1.21141C91.3403 3.18522 88.6947 6.36352 85.6338 11.1274C84.9837 11.1274 81.1642 18.9892 79.8189 27.4289C77.3719 42.72 76.749 80.5699 93.4171 88.4164ZM124.505 66.8634V43.622L119.033 44.9033V54.115C119.033 62.6097 114.78 66.8634 106.275 66.8634H93.5254C85.0198 66.8634 80.776 63.2192 80.776 55.9307C80.776 50.6332 82.618 47.5985 86.311 46.8265L91.0333 45.7521L113.525 40.6035C113.3 36.246 110.88 34.0663 106.275 34.0663H93.5254C88.6586 34.0663 86.2387 36.5033 86.2387 41.3547H80.776C80.776 32.86 85.0198 28.6063 93.5254 28.6063H106.275C114.085 28.6063 118.311 32.1945 118.943 39.3629L129.968 36.8401V66.8634H124.505ZM23.7108 29.949C31.5302 32.014 36.8395 38.7047 36.8395 47.4875C36.8395 58.124 29.0562 65.7609 18.4558 65.7609C7.84641 65.7609 0 58.124 0 47.4875C0 39.5074 4.41526 33.2537 11.106 30.628V35.5219C7.34978 37.8595 4.95707 42.0961 4.95707 47.4875C4.95707 55.8739 10.7448 61.4648 18.4558 61.4648C26.1668 61.4648 31.8824 55.8739 31.8824 47.4875C31.8824 41.1589 28.6228 36.422 23.7108 34.4789V29.949ZM60.4601 29.2826C54.1938 29.2826 49.2999 31.8054 46.6814 36.1692V29.5553H42.0042V65.4196H46.8891V46.6008C46.8891 38.4193 51.783 33.6464 59.5572 33.6464C66.4465 33.6464 70.4374 37.5327 70.4374 45.101V65.4196H75.3314V44.6243C75.3314 34.3282 69.2727 29.2826 60.4601 29.2826ZM106.275 61.3917C111.133 61.3917 113.561 58.9655 113.561 54.115V46.2794L87.7286 52.2125C86.7353 52.5601 86.2387 53.1822 86.2387 54.115C86.2387 58.9655 88.6586 61.3917 93.5254 61.3917H106.275ZM20.5416 25.167C20.5416 24.3309 20.2075 23.5291 19.6116 22.9386C19.0247 22.3472 18.221 22.0158 17.3903 22.0158H17.3814C16.5507 22.0158 15.747 22.3472 15.1511 22.9386C14.5642 23.5291 14.2301 24.3309 14.2301 25.167V45.78C14.2301 46.6161 14.5642 47.417 15.1511 48.0084C15.747 48.599 16.5507 48.9313 17.3814 48.9313H17.3903C18.221 48.9313 19.0247 48.599 19.6116 48.0084C20.2075 47.417 20.5416 46.6161 20.5416 45.78V25.167ZM127.232 31.3422C124.803 31.3422 123.584 30.1232 123.584 27.6979C123.584 25.26 124.803 24.0538 127.232 24.0538C129.67 24.0538 130.871 25.26 130.871 27.6979C130.871 30.1232 129.67 31.3422 127.232 31.3422Z" fill="white"/>
</svg>
